<svg xmlns="http://www.w3.org/2000/svg" id="markerSvg" viewBox="0 0 400 400" width="400px" height="400px">
                <g id="svgg">
                    <!-- Outer Pin Shape - Original path0 -->
                    <path id="outerPin" d="M191.602 6.087 C 190.742 6.172,187.754 6.433,184.961 6.668 C 126.758 11.555,76.097 51.576,58.406 106.641 C 43.900 151.795,53.159 203.616,82.418 241.016 C 83.846 242.842,88.685 249.082,93.170 254.883 C 97.656 260.684,103.721 268.506,106.649 272.266 C 109.577 276.025,116.254 284.639,121.488 291.406 C 126.721 298.174,133.398 306.787,136.325 310.547 C 139.252 314.307,145.318 322.129,149.805 327.930 C 154.292 333.730,160.709 341.992,164.064 346.289 C 167.420 350.586,173.776 358.760,178.189 364.453 C 190.160 379.896,193.230 382.145,201.498 381.521 C 208.848 380.967,210.438 379.495,227.423 357.511 C 235.007 347.696,246.396 332.950,252.734 324.741 C 266.471 306.950,290.005 276.562,306.989 254.688 C 332.106 222.336,339.337 208.771,344.886 183.594 C 363.929 97.194,305.873 16.831,217.188 6.829 C 212.153 6.261,194.891 5.760,191.602 6.087 M209.110 37.186 C 208.719 37.352,209.629 37.391,211.133 37.273 C 213.090 37.118,213.701 37.173,213.281 37.464 C 212.858 37.758,213.292 37.810,214.844 37.653 C 216.434 37.492,216.840 37.545,216.406 37.856 C 215.971 38.168,216.323 38.218,217.773 38.051 C 219.244 37.882,219.582 37.932,219.141 38.255 C 218.698 38.578,218.984 38.626,220.313 38.451 C 221.659 38.273,221.933 38.320,221.484 38.655 C 221.035 38.990,221.253 39.030,222.420 38.828 C 223.501 38.640,223.863 38.691,223.670 39.003 C 223.481 39.309,223.789 39.374,224.688 39.219 C 225.708 39.043,225.855 39.090,225.391 39.444 C 224.930 39.795,225.087 39.835,226.123 39.630 C 227.067 39.444,227.363 39.497,227.165 39.818 C 226.969 40.135,227.200 40.187,227.955 39.998 C 228.729 39.804,228.944 39.857,228.736 40.193 C 228.529 40.529,228.744 40.583,229.518 40.388 C 230.291 40.194,230.506 40.248,230.299 40.584 C 230.091 40.919,230.307 40.973,231.080 40.779 C 231.906 40.572,232.076 40.627,231.830 41.025 C 231.597 41.402,231.695 41.469,232.194 41.278 C 233.017 40.962,234.838 41.364,234.567 41.802 C 234.461 41.974,234.753 42.015,235.217 41.894 C 235.757 41.753,235.967 41.823,235.803 42.090 C 235.638 42.356,235.849 42.426,236.389 42.285 C 237.002 42.124,237.149 42.199,236.926 42.558 C 236.699 42.926,236.845 42.981,237.500 42.773 C 238.139 42.571,238.299 42.624,238.086 42.969 C 237.873 43.313,238.033 43.367,238.672 43.164 C 239.229 42.987,239.461 43.030,239.306 43.281 C 239.156 43.524,239.387 43.592,239.904 43.457 C 240.532 43.293,240.666 43.367,240.430 43.749 C 240.219 44.091,240.266 44.167,240.572 43.978 C 241.165 43.611,243.826 44.483,243.538 44.949 C 243.417 45.144,243.592 45.199,243.925 45.071 C 244.258 44.943,244.531 45.027,244.531 45.258 C 244.531 45.490,244.823 45.567,245.181 45.429 C 245.615 45.263,245.738 45.330,245.552 45.632 C 245.369 45.928,245.482 46.004,245.878 45.852 C 246.212 45.724,246.484 45.824,246.484 46.075 C 246.484 46.326,246.660 46.422,246.875 46.289 C 247.090 46.156,247.266 46.244,247.266 46.484 C 247.266 46.725,247.426 46.822,247.621 46.701 C 248.123 46.391,249.258 46.886,249.001 47.302 C 248.884 47.492,249.060 47.543,249.394 47.415 C 249.727 47.287,250.000 47.371,250.000 47.602 C 250.000 47.833,250.262 47.922,250.583 47.799 C 250.915 47.671,251.268 47.844,251.405 48.199 C 251.537 48.543,251.802 48.726,251.994 48.608 C 252.186 48.489,252.344 48.588,252.344 48.828 C 252.344 49.068,252.514 49.160,252.721 49.032 C 253.190 48.742,256.250 50.266,256.250 50.789 C 256.250 51.000,256.382 51.151,256.543 51.126 C 257.362 50.996,257.829 51.220,257.580 51.623 C 257.407 51.902,257.473 51.968,257.751 51.796 C 258.325 51.441,260.583 52.751,260.270 53.257 C 260.141 53.466,260.237 53.512,260.486 53.358 C 261.041 53.015,262.607 54.048,262.205 54.492 C 262.045 54.669,262.131 54.688,262.396 54.536 C 262.950 54.217,267.305 56.986,268.695 58.540 C 269.202 59.107,269.488 59.332,269.331 59.042 C 269.137 58.683,269.375 58.729,270.069 59.184 C 271.052 59.828,271.571 60.498,270.643 59.924 C 270.370 59.755,270.298 59.816,270.460 60.079 C 270.607 60.317,270.958 60.425,271.239 60.317 C 271.520 60.209,271.998 60.426,272.301 60.799 C 272.771 61.379,272.771 61.430,272.303 61.147 C 271.928 60.921,271.844 60.961,272.037 61.274 C 272.192 61.526,272.467 61.641,272.646 61.530 C 273.047 61.282,275.760 63.481,278.125 65.971 C 279.092 66.988,279.445 67.283,278.911 66.625 C 278.302 65.876,278.666 66.101,279.888 67.228 C 280.959 68.217,282.491 69.603,283.291 70.309 C 284.091 71.014,284.649 71.748,284.531 71.938 C 284.413 72.129,284.462 72.240,284.639 72.186 C 285.799 71.830,299.654 89.213,299.024 90.234 C 298.884 90.460,299.003 90.596,299.287 90.537 C 299.573 90.478,299.781 90.733,299.751 91.109 C 299.722 91.483,299.821 91.712,299.972 91.619 C 300.124 91.525,300.569 91.993,300.961 92.657 C 301.465 93.511,301.515 93.781,301.130 93.579 C 300.831 93.421,300.961 93.614,301.419 94.009 C 302.512 94.950,303.231 96.387,302.887 96.943 C 302.720 97.215,302.788 97.278,303.065 97.108 C 303.467 96.859,303.691 97.326,303.562 98.145 C 303.536 98.306,303.689 98.437,303.901 98.438 C 304.426 98.438,307.116 103.843,306.826 104.313 C 306.699 104.519,306.799 104.688,307.050 104.688 C 307.301 104.688,307.401 104.959,307.273 105.294 C 307.145 105.627,307.196 105.804,307.385 105.687 C 307.802 105.429,308.296 106.565,307.986 107.067 C 307.865 107.262,307.971 107.422,308.222 107.422 C 308.473 107.422,308.573 107.694,308.445 108.028 C 308.317 108.362,308.373 108.535,308.570 108.413 C 309.034 108.126,309.511 109.620,309.145 110.213 C 308.976 110.485,309.033 110.563,309.287 110.406 C 309.798 110.090,310.321 111.527,309.926 112.166 C 309.742 112.463,309.816 112.515,310.138 112.316 C 310.504 112.090,310.559 112.237,310.352 112.891 C 310.173 113.454,310.216 113.681,310.474 113.522 C 310.973 113.213,311.880 115.830,311.491 116.459 C 311.302 116.764,311.377 116.813,311.715 116.604 C 312.106 116.362,312.161 116.537,311.955 117.357 C 311.760 118.136,311.814 118.347,312.155 118.136 C 312.484 117.933,312.557 118.098,312.403 118.689 C 312.261 119.230,312.332 119.440,312.598 119.275 C 312.864 119.111,312.935 119.321,312.793 119.861 C 312.672 120.325,312.715 120.616,312.888 120.509 C 313.322 120.241,314.202 124.068,313.841 124.651 C 313.645 124.969,313.717 125.018,314.063 124.804 C 314.464 124.557,314.519 124.778,314.319 125.818 C 314.125 126.827,314.166 127.007,314.487 126.563 C 314.811 126.114,314.858 126.278,314.687 127.266 C 314.530 128.175,314.596 128.473,314.911 128.279 C 315.227 128.084,315.284 128.367,315.106 129.256 C 314.930 130.133,314.987 130.426,315.294 130.236 C 315.606 130.044,315.657 130.405,315.469 131.487 C 315.267 132.654,315.307 132.871,315.642 132.422 C 315.976 131.973,316.024 132.248,315.846 133.594 C 315.671 134.922,315.718 135.209,316.042 134.766 C 316.365 134.324,316.415 134.662,316.246 136.133 C 316.079 137.582,316.129 137.935,316.441 137.500 C 316.749 137.069,316.799 137.533,316.631 139.258 C 316.465 140.949,316.515 141.438,316.810 141.016 C 317.102 140.598,317.168 141.605,317.038 144.531 C 316.923 147.136,316.967 147.992,317.159 146.875 C 317.364 145.683,317.461 147.067,317.461 151.172 C 317.461 155.163,317.361 156.627,317.168 155.469 C 316.985 154.371,316.930 155.398,317.021 158.203 C 317.118 161.167,317.048 162.363,316.815 161.719 C 316.570 161.037,316.515 161.568,316.636 163.477 C 316.760 165.433,316.700 165.989,316.426 165.430 C 316.149 164.864,316.102 165.242,316.255 166.797 C 316.414 168.407,316.360 168.798,316.040 168.359 C 315.720 167.920,315.679 168.202,315.874 169.493 C 316.056 170.695,316.006 171.134,315.708 170.950 C 315.415 170.769,315.345 171.150,315.485 172.159 C 315.644 173.305,315.592 173.502,315.252 173.047 C 314.915 172.596,314.870 172.820,315.054 174.023 C 315.242 175.251,315.196 175.460,314.841 175.000 C 314.476 174.526,314.433 174.612,314.615 175.450 C 314.920 176.858,314.457 179.147,314.008 178.449 C 313.810 178.142,313.777 178.472,313.929 179.260 C 314.101 180.156,314.049 180.506,313.769 180.334 C 313.504 180.169,313.433 180.380,313.575 180.920 C 313.729 181.512,313.656 181.677,313.327 181.474 C 312.986 181.263,312.932 181.473,313.127 182.252 C 313.305 182.958,313.256 183.234,312.984 183.066 C 312.723 182.904,312.653 183.119,312.793 183.654 C 312.948 184.246,312.874 184.411,312.546 184.208 C 312.205 183.997,312.151 184.208,312.346 184.986 C 312.523 185.693,312.475 185.968,312.203 185.800 C 311.942 185.639,311.872 185.854,312.012 186.389 C 312.153 186.929,312.083 187.139,311.817 186.975 C 311.550 186.810,311.480 187.020,311.621 187.561 C 311.763 188.101,311.692 188.311,311.426 188.146 C 311.160 187.982,311.090 188.192,311.231 188.732 C 311.372 189.273,311.302 189.483,311.035 189.318 C 310.769 189.154,310.699 189.364,310.840 189.904 C 310.990 190.478,310.917 190.659,310.613 190.470 C 310.323 190.291,310.247 190.407,310.398 190.800 C 310.526 191.133,310.441 191.406,310.210 191.406 C 309.979 191.406,309.902 191.698,310.040 192.056 C 310.222 192.531,310.148 192.619,309.766 192.383 C 309.383 192.146,309.309 192.234,309.492 192.709 C 309.818 193.560,309.409 194.598,308.877 194.270 C 308.616 194.108,308.554 194.255,308.710 194.662 C 309.015 195.457,308.642 196.560,308.167 196.267 C 307.977 196.149,307.926 196.326,308.054 196.659 C 308.182 196.994,308.082 197.266,307.831 197.266 C 307.581 197.266,307.476 197.428,307.599 197.627 C 307.902 198.117,307.001 200.028,306.588 199.772 C 306.407 199.660,306.375 199.870,306.516 200.239 C 306.690 200.691,306.626 200.818,306.321 200.630 C 306.025 200.447,305.949 200.560,306.101 200.956 C 306.229 201.291,306.129 201.563,305.878 201.563 C 305.628 201.563,305.531 201.738,305.664 201.953 C 305.797 202.168,305.709 202.344,305.469 202.344 C 305.229 202.344,305.141 202.520,305.273 202.734 C 305.406 202.949,305.329 203.125,305.101 203.125 C 304.874 203.125,304.722 203.257,304.765 203.418 C 304.939 204.079,304.212 205.462,303.818 205.219 C 303.565 205.063,303.508 205.140,303.675 205.410 C 304.036 205.995,302.341 209.029,301.830 208.713 C 301.612 208.578,301.564 208.671,301.720 208.923 C 302.075 209.497,300.765 211.755,300.259 211.442 C 300.050 211.313,300.002 211.406,300.153 211.650 C 300.470 212.163,296.890 217.727,295.368 219.086 C 294.800 219.593,294.590 219.869,294.901 219.699 C 296.265 218.954,289.435 227.316,284.387 232.571 C 278.900 238.283,268.761 246.779,267.996 246.306 C 267.796 246.182,267.505 246.287,267.349 246.538 C 267.173 246.824,267.236 246.891,267.518 246.717 C 267.766 246.564,267.969 246.513,267.969 246.605 C 267.969 246.906,264.674 248.958,264.190 248.958 C 263.929 248.958,263.749 249.149,263.791 249.382 C 263.833 249.614,263.561 249.781,263.188 249.751 C 262.801 249.721,262.618 249.876,262.764 250.110 C 262.922 250.366,262.776 250.430,262.381 250.279 C 262.031 250.144,261.623 250.229,261.476 250.468 C 261.313 250.731,261.385 250.792,261.658 250.623 C 261.906 250.470,262.109 250.438,262.109 250.553 C 262.109 250.667,261.582 251.034,260.938 251.367 C 260.293 251.700,259.766 251.847,259.766 251.693 C 259.766 251.539,259.529 251.737,259.239 252.133 C 258.907 252.587,258.523 252.737,258.202 252.538 C 257.890 252.345,257.787 252.377,257.937 252.620 C 258.235 253.102,249.778 257.572,249.220 257.227 C 249.005 257.094,248.828 257.190,248.828 257.441 C 248.828 257.692,248.556 257.792,248.222 257.663 C 247.826 257.511,247.713 257.588,247.895 257.883 C 248.084 258.188,247.956 258.252,247.505 258.079 C 247.136 257.937,246.930 257.977,247.048 258.167 C 247.305 258.583,246.170 259.077,245.668 258.767 C 245.472 258.646,245.313 258.753,245.313 259.003 C 245.313 259.254,245.041 259.354,244.706 259.226 C 244.310 259.074,244.197 259.150,244.380 259.446 C 244.567 259.748,244.443 259.816,244.009 259.649 C 243.651 259.512,243.359 259.588,243.359 259.820 C 243.359 260.051,243.087 260.135,242.753 260.007 C 242.420 259.879,242.246 259.936,242.368 260.133 C 242.655 260.597,241.161 261.074,240.568 260.707 C 240.266 260.520,240.220 260.598,240.430 260.939 C 240.666 261.320,240.532 261.395,239.904 261.231 C 239.387 261.096,239.156 261.163,239.306 261.406 C 239.461 261.658,239.229 261.700,238.672 261.523 C 238.120 261.348,237.883 261.390,238.035 261.636 C 238.361 262.164,237.186 262.577,236.224 262.272 C 235.661 262.093,235.533 262.161,235.754 262.520 C 235.977 262.879,235.831 262.954,235.217 262.793 C 234.700 262.658,234.469 262.726,234.619 262.969 C 234.774 263.220,234.542 263.263,233.984 263.086 C 233.330 262.878,233.183 262.933,233.411 263.301 C 233.633 263.661,233.487 263.735,232.873 263.575 C 232.338 263.435,232.123 263.504,232.284 263.765 C 232.452 264.037,232.177 264.086,231.471 263.909 C 230.697 263.714,230.482 263.768,230.690 264.104 C 230.897 264.440,230.682 264.493,229.908 264.299 C 229.279 264.141,228.933 264.181,229.066 264.396 C 229.367 264.882,227.485 265.332,226.480 265.013 C 225.899 264.828,225.766 264.893,225.988 265.254 C 226.222 265.631,225.980 265.687,224.963 265.491 C 223.955 265.297,223.775 265.338,224.219 265.658 C 224.662 265.977,224.423 266.027,223.242 265.864 C 222.082 265.703,221.830 265.753,222.266 266.059 C 222.704 266.367,222.480 266.419,221.378 266.266 C 220.403 266.131,219.990 266.201,220.158 266.472 C 220.328 266.748,219.850 266.805,218.702 266.646 C 217.406 266.466,217.181 266.505,217.773 266.805 C 218.359 267.102,218.017 267.153,216.406 267.009 C 214.838 266.869,214.416 266.928,214.844 267.227 C 215.267 267.523,214.725 267.578,212.891 267.424 C 211.142 267.277,210.595 267.326,211.133 267.581 C 211.656 267.829,210.299 267.905,207.031 267.812 C 203.979 267.725,202.954 267.777,204.297 267.951 C 205.716 268.134,204.192 268.229,199.805 268.230 C 195.595 268.231,193.879 268.130,195.117 267.953 C 196.355 267.776,195.497 267.726,192.773 267.815 C 189.897 267.909,188.735 267.834,189.258 267.588 C 189.794 267.336,189.182 267.279,187.305 267.405 C 185.329 267.539,184.787 267.482,185.352 267.201 C 185.930 266.913,185.627 266.868,184.180 267.028 C 182.717 267.189,182.374 267.137,182.813 266.819 C 183.250 266.502,182.964 266.461,181.678 266.656 C 180.477 266.837,180.038 266.787,180.222 266.489 C 180.404 266.195,180.039 266.135,179.050 266.295 C 178.026 266.461,177.692 266.400,177.888 266.082 C 178.084 265.766,177.800 265.710,176.912 265.887 C 176.024 266.065,175.740 266.008,175.935 265.692 C 176.130 265.377,175.831 265.312,174.922 265.468 C 173.934 265.639,173.770 265.592,174.219 265.268 C 174.663 264.947,174.483 264.907,173.474 265.101 C 172.493 265.289,172.220 265.234,172.433 264.889 C 172.643 264.548,172.432 264.494,171.654 264.690 C 170.852 264.891,170.662 264.836,170.889 264.468 C 171.111 264.110,170.969 264.049,170.361 264.242 C 169.848 264.405,169.531 264.337,169.531 264.063 C 169.531 263.788,169.215 263.720,168.701 263.883 C 168.128 264.065,167.957 264.008,168.148 263.698 C 168.344 263.381,168.113 263.328,167.357 263.518 C 166.651 263.695,166.376 263.647,166.544 263.375 C 166.705 263.114,166.490 263.044,165.955 263.184 C 165.415 263.325,165.205 263.255,165.369 262.989 C 165.534 262.722,165.323 262.652,164.783 262.793 C 164.169 262.954,164.023 262.879,164.246 262.520 C 164.473 262.152,164.327 262.097,163.672 262.305 C 163.114 262.482,162.882 262.439,163.038 262.188 C 163.188 261.945,162.956 261.877,162.439 262.012 C 161.826 262.173,161.680 262.098,161.902 261.738 C 162.129 261.370,161.983 261.316,161.328 261.523 C 160.674 261.731,160.527 261.676,160.754 261.310 C 160.952 260.988,160.900 260.914,160.604 261.098 C 159.959 261.496,158.528 260.970,158.847 260.452 C 159.018 260.177,158.880 260.113,158.463 260.273 C 157.612 260.599,156.574 260.190,156.902 259.658 C 157.064 259.397,156.917 259.335,156.509 259.492 C 155.663 259.816,154.620 259.410,154.945 258.883 C 155.101 258.632,155.009 258.590,154.708 258.777 C 154.128 259.135,150.322 257.458,150.620 256.976 C 150.731 256.796,150.520 256.765,150.152 256.907 C 149.700 257.080,149.572 257.016,149.761 256.711 C 149.938 256.425,149.837 256.337,149.485 256.472 C 149.179 256.590,148.663 256.420,148.339 256.096 C 148.015 255.771,147.652 255.603,147.533 255.723 C 147.190 256.065,145.675 254.849,145.999 254.492 C 146.158 254.316,146.073 254.296,145.809 254.448 C 145.213 254.790,143.789 254.087,142.837 252.982 C 142.443 252.523,142.242 252.383,142.392 252.669 C 142.815 253.479,140.311 252.071,139.140 250.841 C 138.598 250.271,138.307 250.068,138.495 250.391 C 138.965 251.195,136.777 249.805,135.806 248.682 C 135.411 248.225,135.207 248.115,135.352 248.438 C 135.496 248.760,135.233 248.584,134.766 248.047 C 134.299 247.510,134.041 247.308,134.194 247.599 C 134.383 247.960,134.145 247.914,133.447 247.457 C 132.422 246.785,131.988 246.189,132.910 246.719 C 133.189 246.880,133.261 246.850,133.078 246.650 C 132.902 246.457,132.462 246.297,132.101 246.294 C 131.741 246.291,131.494 246.056,131.553 245.772 C 131.612 245.487,131.501 245.353,131.306 245.473 C 130.911 245.718,128.448 243.896,126.953 242.254 C 126.416 241.663,126.152 241.448,126.367 241.774 C 126.582 242.101,126.011 241.785,125.098 241.073 C 124.185 240.361,123.438 239.683,123.438 239.568 C 123.438 239.452,123.745 239.599,124.121 239.894 C 124.740 240.379,124.754 240.365,124.272 239.750 C 123.979 239.377,123.593 239.161,123.415 239.272 C 122.936 239.568,115.591 232.402,115.885 231.926 C 116.023 231.703,115.951 231.634,115.725 231.774 C 115.124 232.145,107.259 223.235,107.642 222.616 C 107.743 222.453,107.619 222.192,107.368 222.037 C 107.055 221.844,107.015 221.928,107.241 222.303 C 107.523 222.771,107.473 222.771,106.893 222.301 C 106.520 221.998,106.305 221.513,106.417 221.223 C 106.528 220.933,106.249 220.478,105.796 220.211 C 104.696 219.563,99.540 211.756,99.865 211.230 C 100.015 210.987,99.935 210.932,99.670 211.096 C 99.273 211.340,99.154 211.121,99.245 210.316 C 99.259 210.189,98.969 209.864,98.599 209.594 C 98.181 209.288,98.046 208.910,98.243 208.593 C 98.451 208.255,98.405 208.177,98.107 208.361 C 97.705 208.610,97.481 208.143,97.610 207.324 C 97.635 207.163,97.470 207.031,97.243 207.031 C 97.015 207.031,96.938 206.855,97.070 206.641 C 97.203 206.426,97.128 206.250,96.902 206.250 C 96.435 206.250,93.204 200.025,93.511 199.718 C 93.622 199.607,93.447 199.251,93.123 198.927 C 92.799 198.602,92.629 198.087,92.746 197.781 C 92.864 197.475,92.804 197.321,92.615 197.438 C 92.140 197.732,91.766 196.629,92.071 195.834 C 92.227 195.427,92.165 195.280,91.904 195.441 C 91.372 195.770,90.963 194.732,91.290 193.881 C 91.446 193.474,91.384 193.327,91.123 193.488 C 90.591 193.817,90.182 192.779,90.508 191.928 C 90.686 191.466,90.614 191.367,90.259 191.586 C 89.885 191.817,89.830 191.674,90.039 191.016 C 90.248 190.357,90.193 190.214,89.819 190.445 C 89.465 190.664,89.392 190.565,89.570 190.103 C 89.707 189.745,89.630 189.453,89.399 189.453 C 89.168 189.453,89.084 189.180,89.212 188.847 C 89.362 188.454,89.287 188.338,88.996 188.517 C 88.692 188.706,88.619 188.524,88.769 187.951 C 88.910 187.411,88.840 187.201,88.574 187.365 C 88.308 187.530,88.237 187.319,88.379 186.779 C 88.500 186.316,88.454 186.026,88.277 186.136 C 87.846 186.402,87.364 184.129,87.727 183.543 C 87.897 183.267,87.844 183.186,87.592 183.341 C 87.087 183.654,86.531 181.478,86.945 180.809 C 87.135 180.501,87.061 180.453,86.722 180.662 C 86.332 180.903,86.276 180.729,86.482 179.908 C 86.672 179.153,86.619 178.922,86.302 179.118 C 85.981 179.316,85.928 179.020,86.115 178.076 C 86.320 177.041,86.280 176.883,85.928 177.344 C 85.574 177.808,85.527 177.661,85.703 176.641 C 85.860 175.731,85.795 175.433,85.480 175.627 C 85.162 175.824,85.108 175.521,85.290 174.572 C 85.484 173.566,85.443 173.385,85.124 173.828 C 84.809 174.266,84.761 173.970,84.935 172.656 C 85.110 171.330,85.062 171.042,84.740 171.484 C 84.416 171.929,84.361 171.652,84.512 170.333 C 84.655 169.092,84.599 168.757,84.316 169.161 C 84.037 169.560,83.986 169.151,84.145 167.773 C 84.311 166.330,84.261 165.973,83.952 166.406 C 83.646 166.835,83.592 166.313,83.748 164.453 C 83.899 162.653,83.850 162.141,83.579 162.695 C 83.313 163.240,83.247 162.354,83.362 159.766 C 83.465 157.456,83.412 156.571,83.222 157.422 C 83.035 158.253,82.919 156.032,82.925 151.758 C 82.932 147.070,83.034 145.378,83.232 146.680 C 83.433 148.008,83.478 147.320,83.373 144.531 C 83.268 141.755,83.338 140.682,83.589 141.211 C 83.846 141.751,83.895 141.208,83.748 139.453 C 83.592 137.593,83.646 137.071,83.952 137.500 C 84.261 137.933,84.311 137.576,84.145 136.133 C 83.971 134.622,84.021 134.312,84.366 134.766 C 84.712 135.220,84.758 134.957,84.570 133.594 C 84.391 132.288,84.437 131.986,84.748 132.422 C 85.060 132.858,85.108 132.558,84.935 131.250 C 84.764 129.960,84.812 129.648,85.114 130.078 C 85.419 130.513,85.469 130.260,85.308 129.102 C 85.144 127.921,85.195 127.682,85.514 128.125 C 85.834 128.569,85.874 128.389,85.681 127.381 C 85.492 126.399,85.548 126.126,85.892 126.339 C 86.233 126.550,86.287 126.339,86.091 125.560 C 85.897 124.787,85.951 124.572,86.287 124.779 C 86.623 124.987,86.676 124.772,86.482 123.998 C 86.275 123.172,86.330 123.002,86.728 123.248 C 87.105 123.481,87.172 123.384,86.981 122.885 C 86.626 121.960,87.089 120.254,87.608 120.575 C 87.872 120.738,87.928 120.583,87.762 120.150 C 87.446 119.327,87.848 117.506,88.286 117.777 C 88.458 117.883,88.500 117.591,88.379 117.127 C 88.237 116.587,88.308 116.376,88.574 116.541 C 88.840 116.706,88.910 116.495,88.769 115.955 C 88.619 115.382,88.692 115.201,88.996 115.389 C 89.287 115.568,89.362 115.452,89.212 115.059 C 89.084 114.726,89.168 114.453,89.399 114.453 C 89.630 114.453,89.707 114.161,89.570 113.803 C 89.392 113.341,89.465 113.242,89.819 113.461 C 90.193 113.692,90.248 113.549,90.039 112.891 C 89.850 112.296,89.899 112.097,90.188 112.276 C 90.456 112.442,90.529 112.314,90.383 111.934 C 90.255 111.601,90.340 111.328,90.571 111.328 C 90.802 111.328,90.879 111.036,90.742 110.678 C 90.575 110.244,90.643 110.121,90.945 110.308 C 91.240 110.490,91.317 110.377,91.165 109.981 C 91.037 109.648,91.121 109.375,91.352 109.375 C 91.584 109.375,91.660 109.083,91.523 108.725 C 91.342 108.253,91.415 108.163,91.791 108.395 C 92.150 108.617,92.215 108.564,92.005 108.223 C 91.625 107.609,93.338 103.847,93.852 104.165 C 94.070 104.300,94.118 104.060,93.967 103.585 C 93.795 103.042,93.964 102.521,94.479 102.006 C 94.901 101.583,95.145 101.134,95.020 101.009 C 94.894 100.884,95.007 100.781,95.270 100.781 C 95.534 100.781,95.641 100.605,95.508 100.391 C 95.375 100.176,95.453 100.000,95.680 100.000 C 95.908 100.000,96.059 99.868,96.016 99.707 C 95.842 99.046,96.569 97.663,96.963 97.906 C 97.216 98.062,97.274 97.985,97.107 97.715 C 96.773 97.176,98.420 94.084,98.887 94.372 C 99.064 94.482,99.114 94.322,98.997 94.018 C 98.877 93.705,99.348 92.896,100.076 92.162 C 100.786 91.447,101.104 91.021,100.781 91.217 C 100.184 91.578,100.253 91.451,102.657 87.793 C 103.506 86.500,104.392 85.617,103.674 86.779 C 103.500 87.061,103.567 87.124,103.852 86.947 C 104.104 86.792,104.209 86.501,104.085 86.301 C 103.799 85.839,107.003 81.532,109.125 79.526 C 110.015 78.685,110.394 78.246,109.969 78.549 C 108.344 79.709,111.197 76.562,117.263 70.503 C 120.635 67.136,123.560 64.483,123.762 64.608 C 123.965 64.733,124.370 64.529,124.663 64.156 C 125.154 63.529,125.135 63.521,124.414 64.044 C 123.984 64.356,123.822 64.395,124.053 64.131 C 125.014 63.035,131.041 58.660,131.338 58.843 C 131.515 58.953,131.612 58.810,131.553 58.525 C 131.493 58.239,131.749 58.032,132.125 58.061 C 132.498 58.091,132.726 57.989,132.631 57.835 C 132.351 57.381,138.612 53.433,139.117 53.745 C 139.371 53.902,139.470 53.859,139.339 53.648 C 139.027 53.142,141.284 51.832,141.858 52.186 C 142.137 52.358,142.202 52.293,142.029 52.013 C 141.781 51.611,142.247 51.387,143.066 51.516 C 143.228 51.542,143.359 51.389,143.359 51.176 C 143.359 50.725,149.594 47.510,149.892 47.808 C 150.002 47.919,150.358 47.744,150.683 47.420 C 151.007 47.095,151.523 46.926,151.828 47.043 C 152.134 47.161,152.288 47.101,152.171 46.911 C 151.914 46.495,153.049 46.001,153.551 46.311 C 153.746 46.432,153.906 46.326,153.906 46.075 C 153.906 45.824,154.178 45.724,154.512 45.852 C 154.846 45.980,155.019 45.924,154.897 45.727 C 154.610 45.262,156.104 44.786,156.697 45.152 C 157.001 45.340,157.046 45.262,156.832 44.916 C 156.600 44.540,156.691 44.467,157.162 44.648 C 157.520 44.785,157.813 44.709,157.813 44.477 C 157.813 44.246,158.085 44.162,158.419 44.290 C 158.812 44.440,158.928 44.365,158.748 44.075 C 158.560 43.770,158.741 43.697,159.314 43.847 C 159.778 43.969,160.068 43.923,159.958 43.745 C 159.684 43.301,162.375 42.455,162.943 42.806 C 163.249 42.995,163.297 42.920,163.088 42.582 C 162.847 42.191,163.021 42.136,163.842 42.341 C 164.597 42.531,164.828 42.479,164.632 42.161 C 164.439 41.848,164.620 41.797,165.234 41.992 C 165.889 42.200,166.036 42.145,165.808 41.777 C 165.586 41.417,165.732 41.343,166.346 41.504 C 166.881 41.643,167.096 41.574,166.934 41.313 C 166.766 41.041,167.042 40.992,167.748 41.170 C 168.522 41.364,168.737 41.310,168.529 40.974 C 168.322 40.639,168.537 40.585,169.310 40.779 C 170.084 40.973,170.299 40.919,170.092 40.584 C 169.884 40.248,170.099 40.194,170.873 40.388 C 171.647 40.583,171.862 40.529,171.654 40.193 C 171.447 39.857,171.662 39.804,172.435 39.998 C 173.214 40.193,173.425 40.139,173.214 39.798 C 173.001 39.454,173.274 39.398,174.256 39.587 C 175.258 39.780,175.442 39.739,175.000 39.423 C 174.561 39.110,174.807 39.064,175.977 39.243 C 177.180 39.427,177.404 39.382,176.953 39.045 C 176.498 38.705,176.695 38.653,177.841 38.812 C 178.853 38.952,179.231 38.882,179.050 38.588 C 178.866 38.290,179.251 38.234,180.310 38.405 C 181.437 38.586,181.683 38.542,181.250 38.238 C 180.820 37.936,181.183 37.880,182.617 38.029 C 184.016 38.174,184.349 38.127,183.789 37.861 C 183.244 37.603,183.777 37.548,185.547 37.679 C 187.379 37.815,187.868 37.760,187.305 37.482 C 186.745 37.205,187.355 37.144,189.453 37.265 C 191.064 37.358,191.948 37.310,191.417 37.159 C 190.886 37.008,194.810 36.884,200.137 36.884 C 205.464 36.884,209.502 37.020,209.110 37.186 M120.874 67.285 L 119.727 68.555 120.996 67.407 C 121.694 66.776,122.266 66.205,122.266 66.138 C 122.266 65.836,121.943 66.102,120.874 67.285 M113.061 75.098 L 111.914 76.367 113.184 75.220 C 114.367 74.150,114.633 73.828,114.331 73.828 C 114.264 73.828,113.692 74.399,113.061 75.098 M112.891 229.028 C 112.891 229.096,113.462 229.667,114.160 230.298 L 115.430 231.445 114.282 230.176 C 113.213 228.992,112.891 228.727,112.891 229.028 M282.414 233.887 L 278.711 237.695 282.520 233.992 C 286.057 230.553,286.506 230.078,286.223 230.078 C 286.165 230.078,284.451 231.792,282.414 233.887 M119.515 235.645 C 121.134 237.369,121.484 237.679,121.484 237.386 C 121.484 237.323,120.649 236.488,119.629 235.531 L 117.773 233.789 119.515 235.645 " fill="#105694" stroke="none" fill-rule="evenodd"/>
                    <!-- Inner Circle/Shape - Original path1 -->
                    <path id="innerCircleShape" d="M187.305 37.723 C 90.239 48.723,48.676 164.851,117.323 233.252 C 186.574 302.255,304.650 261.530,316.229 164.648 C 324.905 92.055,261.210 29.347,187.305 37.723 M202.282 63.965 C 202.945 64.527,213.297 88.895,223.067 112.891 C 224.957 117.532,225.778 118.652,227.504 118.939 C 228.168 119.050,238.291 119.936,250.000 120.909 C 285.123 123.828,282.387 123.514,283.454 124.754 C 284.798 126.316,284.668 127.952,283.081 129.446 C 282.370 130.116,272.782 138.662,261.776 148.438 C 250.535 158.421,241.671 166.581,241.552 167.054 C 241.355 167.834,243.526 177.679,251.010 209.953 C 254.281 224.059,254.344 224.599,252.877 225.753 C 251.096 227.154,250.414 226.845,236.010 218.104 C 200.050 196.283,200.781 196.704,199.585 197.155 C 198.984 197.382,187.621 204.091,174.334 212.065 C 148.876 227.343,148.820 227.371,147.053 225.604 C 145.783 224.334,145.824 223.469,147.483 216.543 C 148.770 211.166,150.058 205.637,156.269 178.838 C 159.118 166.546,159.113 167.472,156.348 164.789 C 154.309 162.811,125.708 137.244,118.916 131.328 C 115.998 128.787,115.372 127.670,115.974 126.085 C 116.671 124.252,117.201 124.124,128.049 123.169 C 162.389 120.144,173.181 119.096,173.888 118.718 C 174.891 118.181,175.290 117.301,184.586 95.117 C 188.817 85.020,193.386 74.122,194.739 70.901 C 197.971 63.203,199.609 61.698,202.282 63.965 " fill="#105694" stroke="none" fill-rule="evenodd"/>
                    <!-- Star Shape - Original path3 -->
                    <path id="starShape" d="M191.895 37.003 C 192.700 37.088,194.019 37.088,194.824 37.003 C 195.630 36.919,194.971 36.850,193.359 36.850 C 191.748 36.850,191.089 36.919,191.895 37.003 M205.566 37.003 C 206.372 37.088,207.690 37.088,208.496 37.003 C 209.302 36.919,208.643 36.850,207.031 36.850 C 205.420 36.850,204.761 36.919,205.566 37.003 M187.603 37.390 C 188.197 37.479,189.076 37.477,189.556 37.384 C 190.037 37.292,189.551 37.218,188.477 37.221 C 187.402 37.224,187.009 37.300,187.603 37.390 M211.626 37.386 C 212.112 37.479,212.815 37.476,213.188 37.378 C 213.562 37.280,213.164 37.204,212.305 37.208 C 211.445 37.212,211.140 37.292,211.626 37.386 M181.055 38.078 C 177.939 38.734,179.498 38.749,183.203 38.098 C 184.851 37.809,185.535 37.584,184.766 37.585 C 184.014 37.585,182.344 37.807,181.055 38.078 M214.751 37.776 C 215.237 37.870,215.940 37.866,216.313 37.768 C 216.687 37.671,216.289 37.594,215.430 37.599 C 214.570 37.603,214.265 37.683,214.751 37.776 M217.676 38.160 C 218.052 38.258,218.667 38.258,219.043 38.160 C 219.419 38.062,219.111 37.981,218.359 37.981 C 217.607 37.981,217.300 38.062,217.676 38.160 M173.828 39.453 C 173.055 39.701,173.014 39.766,173.633 39.766 C 174.063 39.766,174.854 39.625,175.391 39.453 C 176.164 39.205,176.205 39.140,175.586 39.140 C 175.156 39.140,174.365 39.281,173.828 39.453 M166.211 41.406 C 165.719 41.618,165.646 41.742,166.016 41.742 C 166.338 41.742,166.953 41.591,167.383 41.406 C 167.875 41.195,167.947 41.071,167.578 41.071 C 167.256 41.071,166.641 41.222,166.211 41.406 M234.180 41.797 C 235.254 42.193,236.396 42.518,236.719 42.518 C 237.041 42.518,236.426 42.193,235.352 41.797 C 234.277 41.400,233.135 41.076,232.813 41.076 C 232.490 41.076,233.105 41.400,234.180 41.797 M160.434 43.236 C 158.976 43.788,157.846 44.305,157.925 44.383 C 158.003 44.461,159.460 44.008,161.162 43.375 C 162.865 42.743,163.994 42.227,163.672 42.228 C 163.350 42.230,161.893 42.683,160.434 43.236 M238.677 43.089 C 238.978 43.413,244.285 45.298,244.446 45.137 C 244.523 45.061,243.650 44.652,242.507 44.229 C 239.810 43.230,238.427 42.818,238.677 43.089 M155.273 45.291 C 154.414 45.698,153.887 46.032,154.102 46.033 C 154.634 46.037,157.717 44.594,157.227 44.570 C 157.012 44.560,156.133 44.884,155.273 45.291 M151.563 46.875 C 150.811 47.287,150.371 47.624,150.586 47.624 C 150.801 47.624,151.592 47.287,152.344 46.875 C 153.096 46.463,153.535 46.126,153.320 46.126 C 153.105 46.126,152.314 46.463,151.563 46.875 M248.438 47.070 C 248.975 47.377,249.590 47.629,249.805 47.629 C 250.020 47.629,249.756 47.377,249.219 47.070 C 248.682 46.763,248.066 46.512,247.852 46.512 C 247.637 46.512,247.900 46.763,248.438 47.070 M146.387 49.243 C 144.722 50.094,143.359 50.878,143.359 50.986 C 143.359 51.160,149.570 48.172,149.967 47.806 C 150.521 47.296,149.003 47.906,146.387 49.243 M252.767 48.975 C 253.166 49.337,256.250 50.777,256.250 50.602 C 256.250 50.380,253.302 48.828,252.880 48.828 C 252.728 48.828,252.677 48.894,252.767 48.975 M256.641 50.906 C 256.641 51.015,257.742 51.720,259.088 52.473 C 260.434 53.226,263.158 54.908,265.142 56.211 C 267.127 57.513,268.750 58.491,268.750 58.382 C 268.750 58.122,261.736 53.556,258.887 51.963 C 257.651 51.272,256.641 50.796,256.641 50.906 M139.147 53.291 C 129.987 58.704,115.893 70.645,110.156 77.854 C 109.619 78.529,112.432 75.818,116.406 71.831 C 124.181 64.031,130.882 58.654,138.614 54.010 C 140.882 52.648,142.818 51.452,142.918 51.353 C 143.432 50.839,142.393 51.373,139.147 53.291 M270.301 59.642 C 275.959 64.236,277.734 65.630,277.734 65.477 C 277.734 65.211,271.868 60.424,270.313 59.422 L 268.945 58.541 270.301 59.642 M198.270 64.160 C 197.654 64.706,196.259 67.480,194.585 71.484 C 187.952 87.358,175.725 116.492,175.354 117.307 C 174.707 118.728,173.613 119.170,169.786 119.558 C 165.766 119.965,139.166 122.312,128.125 123.234 C 118.339 124.050,117.635 124.162,116.769 125.028 C 115.815 125.982,115.778 128.221,116.699 129.145 C 117.841 130.291,155.876 164.205,156.889 164.982 C 159.400 166.906,159.702 165.175,148.828 211.133 C 145.717 224.278,145.718 224.269,147.052 225.603 C 148.739 227.290,149.147 227.084,175.000 211.553 C 188.428 203.486,199.748 196.884,200.157 196.881 C 201.129 196.873,203.100 198.026,228.620 213.514 C 257.822 231.236,255.976 231.894,249.969 205.903 C 243.037 175.905,241.406 168.594,241.406 167.507 C 241.406 166.596,244.177 163.983,260.840 149.183 C 287.142 125.820,285.709 127.362,283.496 124.812 C 282.512 123.678,284.454 123.890,244.141 120.512 C 225.846 118.979,226.623 119.090,225.486 117.864 C 224.836 117.165,215.645 95.565,207.910 76.563 C 203.095 64.732,202.252 63.281,200.195 63.281 C 199.682 63.281,198.816 63.677,198.270 64.160 M283.069 70.707 C 290.923 78.760,294.607 83.285,299.204 90.527 C 301.240 93.734,302.422 95.079,300.749 92.285 C 296.031 84.406,287.378 73.980,280.078 67.380 C 278.896 66.311,280.242 67.808,283.069 70.707 M107.220 81.543 C 104.606 84.850,100.150 91.406,100.517 91.406 C 100.612 91.406,101.457 90.227,102.396 88.786 C 103.334 87.344,105.282 84.620,106.725 82.731 C 108.168 80.842,109.270 79.297,109.172 79.297 C 109.075 79.297,108.197 80.308,107.220 81.543 M98.706 94.043 C 97.032 96.827,95.622 99.609,95.885 99.609 C 95.994 99.609,96.604 98.599,97.242 97.363 C 97.879 96.128,98.858 94.370,99.418 93.457 C 99.977 92.544,100.350 91.797,100.246 91.797 C 100.142 91.797,99.449 92.808,98.706 94.043 M302.539 96.094 C 303.083 97.168,303.617 98.047,303.724 98.047 C 303.832 98.047,303.474 97.168,302.930 96.094 C 302.385 95.020,301.852 94.141,301.745 94.141 C 301.637 94.141,301.995 95.020,302.539 96.094 M305.355 101.353 C 306.149 102.957,306.862 104.206,306.940 104.128 C 307.114 103.954,304.361 98.438,304.100 98.438 C 303.997 98.438,304.562 99.750,305.355 101.353 M92.440 106.193 C 91.871 107.460,91.414 108.650,91.424 108.838 C 91.434 109.026,91.963 108.053,92.600 106.677 C 93.237 105.300,93.694 104.110,93.615 104.032 C 93.537 103.954,93.008 104.926,92.440 106.193 M307.059 104.883 C 307.059 105.098,307.310 105.713,307.617 106.250 C 307.924 106.787,308.175 107.051,308.175 106.836 C 308.175 106.621,307.924 106.006,307.617 105.469 C 307.310 104.932,307.059 104.668,307.059 104.883 M308.395 108.105 C 308.546 108.481,309.030 109.715,309.470 110.848 C 309.910 111.980,310.341 112.836,310.426 112.751 C 310.619 112.558,308.585 107.422,308.315 107.422 C 308.208 107.422,308.243 107.729,308.395 108.105 M310.802 114.063 C 311.247 115.822,312.160 117.971,311.899 116.645 C 311.777 116.024,311.424 114.969,311.116 114.301 C 310.694 113.387,310.616 113.328,310.802 114.063 M88.324 116.851 C 87.871 118.194,87.513 119.478,87.529 119.705 C 87.545 119.932,87.983 118.900,88.503 117.413 C 89.022 115.925,89.380 114.641,89.298 114.559 C 89.216 114.477,88.778 115.508,88.324 116.851 M312.309 118.750 C 312.882 121.322,314.787 127.861,314.813 127.344 C 314.849 126.619,313.105 120.084,312.520 118.750 L 312.091 117.773 312.309 118.750 M86.942 121.317 C 86.798 121.889,86.756 122.433,86.848 122.525 C 86.940 122.617,87.133 122.224,87.277 121.652 C 87.420 121.079,87.463 120.536,87.371 120.444 C 87.279 120.351,87.086 120.744,86.942 121.317 M85.156 128.711 C 84.889 130.127,84.750 131.364,84.846 131.461 C 84.943 131.557,85.236 130.474,85.498 129.053 C 85.760 127.632,85.899 126.394,85.808 126.303 C 85.717 126.211,85.423 127.295,85.156 128.711 M84.075 135.547 C 84.075 136.299,84.155 136.606,84.254 136.230 C 84.352 135.854,84.352 135.239,84.254 134.863 C 84.155 134.487,84.075 134.795,84.075 135.547 M316.106 135.547 C 316.106 136.299,316.187 136.606,316.285 136.230 C 316.383 135.854,316.383 135.239,316.285 134.863 C 316.187 134.487,316.106 134.795,316.106 135.547 M83.692 138.477 C 83.697 139.336,83.777 139.642,83.870 139.156 C 83.963 138.670,83.960 137.967,83.862 137.593 C 83.764 137.220,83.688 137.617,83.692 138.477 M316.505 138.477 C 316.509 139.336,316.589 139.642,316.683 139.156 C 316.776 138.670,316.772 137.967,316.675 137.593 C 316.577 137.220,316.500 137.617,316.505 138.477 M83.315 142.383 C 83.318 143.457,83.394 143.850,83.483 143.256 C 83.573 142.663,83.571 141.784,83.478 141.303 C 83.385 140.823,83.312 141.309,83.315 142.383 M316.909 142.383 C 316.912 143.457,316.987 143.850,317.077 143.256 C 317.167 142.663,317.165 141.784,317.072 141.303 C 316.979 140.823,316.906 141.309,316.909 142.383 M82.974 151.758 C 82.974 155.625,83.033 157.154,83.104 155.156 C 83.175 153.158,83.175 149.994,83.103 148.125 C 83.032 146.256,82.973 147.891,82.974 151.758 M317.345 151.172 C 317.345 154.502,317.405 155.864,317.478 154.199 C 317.551 152.534,317.551 149.810,317.478 148.145 C 317.405 146.479,317.345 147.842,317.345 151.172 M316.922 160.156 C 316.922 161.553,316.993 162.124,317.079 161.426 C 317.166 160.728,317.166 159.585,317.079 158.887 C 316.993 158.188,316.922 158.760,316.922 160.156 M83.320 161.328 C 83.320 162.510,83.393 162.993,83.483 162.402 C 83.572 161.812,83.572 160.845,83.483 160.254 C 83.393 159.663,83.320 160.146,83.320 161.328 M316.513 164.453 C 316.513 165.420,316.589 165.815,316.682 165.332 C 316.775 164.849,316.775 164.058,316.682 163.574 C 316.589 163.091,316.513 163.486,316.513 164.453 M83.692 165.430 C 83.697 166.289,83.777 166.595,83.870 166.109 C 83.963 165.623,83.960 164.920,83.862 164.546 C 83.764 164.173,83.688 164.570,83.692 165.430 M316.106 167.578 C 316.106 168.330,316.187 168.638,316.285 168.262 C 316.383 167.886,316.383 167.271,316.285 166.895 C 316.187 166.519,316.106 166.826,316.106 167.578 M84.052 167.969 C 84.039 168.506,84.175 169.648,84.353 170.508 C 84.560 171.510,84.684 171.720,84.698 171.094 C 84.711 170.557,84.575 169.414,84.397 168.555 C 84.190 167.552,84.066 167.342,84.052 167.969 M84.851 173.047 C 84.847 173.584,84.984 174.463,85.156 175.000 C 85.577 176.313,85.577 174.895,85.156 173.242 C 84.888 172.190,84.857 172.170,84.851 173.047 M313.932 178.581 C 313.565 180.111,313.335 181.434,313.422 181.521 C 313.508 181.607,313.884 180.430,314.258 178.906 C 314.631 177.382,314.861 176.059,314.769 175.966 C 314.676 175.874,314.300 177.050,313.932 178.581 M86.537 180.664 C 86.849 182.369,89.086 189.560,89.253 189.393 C 89.383 189.263,86.936 180.777,86.510 179.883 C 86.407 179.668,86.420 180.020,86.537 180.664 M312.723 183.036 C 312.580 183.608,312.537 184.152,312.629 184.244 C 312.721 184.336,312.914 183.943,313.058 183.371 C 313.202 182.798,313.244 182.254,313.152 182.162 C 313.060 182.070,312.867 182.463,312.723 183.036 M311.222 187.979 C 310.647 189.732,310.242 191.231,310.322 191.311 C 310.401 191.391,310.942 190.027,311.523 188.281 C 312.105 186.535,312.510 185.036,312.424 184.950 C 312.337 184.863,311.796 186.227,311.222 187.979 M308.267 195.915 C 307.612 197.352,307.737 197.658,308.445 196.352 C 308.775 195.742,308.972 195.170,308.883 195.081 C 308.794 194.992,308.516 195.367,308.267 195.915 M91.830 196.289 C 91.830 196.504,92.166 197.295,92.578 198.047 C 92.990 198.799,93.327 199.238,93.327 199.023 C 93.327 198.809,92.990 198.018,92.578 197.266 C 92.166 196.514,91.830 196.074,91.830 196.289 M306.714 199.433 C 305.538 201.855,305.669 202.194,306.881 199.864 C 307.423 198.823,307.799 197.904,307.718 197.822 C 307.636 197.740,307.185 198.465,306.714 199.433 M93.359 199.748 C 93.359 200.173,96.471 206.250,96.688 206.250 C 96.863 206.250,93.875 200.039,93.509 199.642 C 93.427 199.552,93.359 199.600,93.359 199.748 M302.803 207.136 C 301.730 209.127,299.608 212.643,298.089 214.948 C 296.569 217.254,295.414 219.141,295.523 219.141 C 295.876 219.141,301.426 210.442,303.312 206.934 C 304.322 205.054,305.060 203.516,304.952 203.516 C 304.844 203.516,303.877 205.145,302.803 207.136 M97.852 208.594 C 98.185 209.238,98.545 209.766,98.653 209.766 C 98.760 209.766,98.575 209.238,98.242 208.594 C 97.909 207.949,97.548 207.422,97.441 207.422 C 97.333 207.422,97.518 207.949,97.852 208.594 M99.621 211.523 C 101.004 213.877,105.073 219.922,105.275 219.922 C 105.372 219.922,104.108 217.856,102.466 215.332 C 99.426 210.659,97.960 208.697,99.621 211.523 M291.731 223.730 C 283.559 233.916,274.944 241.781,264.258 248.810 C 259.748 251.776,258.931 252.383,260.547 251.564 C 269.912 246.823,286.945 231.373,294.463 220.801 C 296.204 218.353,295.069 219.570,291.731 223.730 M105.907 220.996 C 110.949 227.450,121.106 238.074,125.000 240.968 C 126.122 241.801,125.839 241.458,124.219 240.019 C 119.604 235.919,111.926 227.989,108.826 224.121 C 107.148 222.026,105.684 220.313,105.574 220.313 C 105.463 220.313,105.613 220.620,105.907 220.996 M128.320 243.537 C 130.012 245.034,134.375 248.201,134.375 247.931 C 134.375 247.841,132.661 246.504,130.566 244.960 C 128.472 243.417,127.461 242.777,128.320 243.537 M136.523 249.421 C 136.953 249.771,137.656 250.230,138.086 250.441 L 138.867 250.824 138.086 250.188 C 137.656 249.838,136.953 249.380,136.523 249.169 L 135.742 248.785 136.523 249.421 M139.648 251.363 C 140.521 252.089,142.996 253.426,142.383 252.842 C 142.168 252.637,141.289 252.074,140.430 251.591 C 139.570 251.109,139.219 251.006,139.648 251.363 M254.102 254.707 C 251.309 256.193,249.183 257.412,249.379 257.416 C 249.814 257.423,258.643 252.820,259.160 252.315 C 259.781 251.710,259.367 251.906,254.102 254.707 M142.969 253.268 C 142.969 253.528,147.366 255.890,147.535 255.721 C 147.609 255.646,146.612 255.021,145.319 254.332 C 144.027 253.643,142.969 253.164,142.969 253.268 M151.758 257.838 C 153.906 258.891,155.840 259.749,156.055 259.743 C 156.270 259.738,154.618 258.862,152.385 257.796 C 150.152 256.731,148.218 255.874,148.088 255.892 C 147.958 255.909,149.609 256.785,151.758 257.838 M246.875 258.203 C 246.123 258.615,245.684 258.952,245.898 258.952 C 246.113 258.952,246.904 258.615,247.656 258.203 C 248.408 257.791,248.848 257.455,248.633 257.455 C 248.418 257.455,247.627 257.791,246.875 258.203 M240.711 260.644 C 239.576 261.079,238.718 261.505,238.804 261.590 C 238.986 261.772,243.359 260.181,243.359 259.933 C 243.359 259.676,242.944 259.788,240.711 260.644 M158.984 260.872 C 159.307 261.071,160.010 261.351,160.547 261.495 C 161.226 261.676,161.345 261.646,160.938 261.394 C 160.615 261.195,159.912 260.914,159.375 260.771 C 158.696 260.589,158.577 260.620,158.984 260.872 M165.234 263.086 C 165.986 263.376,166.865 263.612,167.188 263.612 C 167.510 263.612,167.158 263.376,166.406 263.086 C 165.654 262.796,164.775 262.559,164.453 262.559 C 164.131 262.559,164.482 262.796,165.234 263.086 M231.836 263.672 C 231.344 263.883,231.271 264.008,231.641 264.008 C 231.963 264.008,232.578 263.857,233.008 263.672 C 233.500 263.460,233.572 263.336,233.203 263.336 C 232.881 263.336,232.266 263.487,231.836 263.672 M227.344 264.844 C 226.559 265.095,226.520 265.159,227.148 265.168 C 227.578 265.174,228.281 265.028,228.711 264.844 C 229.706 264.416,228.679 264.416,227.344 264.844 M173.047 265.234 C 173.584 265.406,174.375 265.547,174.805 265.547 C 175.423 265.547,175.383 265.482,174.609 265.234 C 174.072 265.062,173.281 264.922,172.852 264.922 C 172.233 264.922,172.274 264.987,173.047 265.234 M222.656 265.820 C 221.475 266.094,220.947 266.321,221.484 266.325 C 222.021 266.328,223.340 266.105,224.414 265.829 C 226.950 265.177,225.461 265.170,222.656 265.820 M216.313 267.073 C 216.799 267.167,217.502 267.163,217.876 267.065 C 218.249 266.967,217.852 266.891,216.992 266.895 C 216.133 266.900,215.827 266.980,216.313 267.073 M185.449 267.463 C 185.933 267.556,186.724 267.556,187.207 267.463 C 187.690 267.370,187.295 267.294,186.328 267.294 C 185.361 267.294,184.966 267.370,185.449 267.463 M213.188 267.464 C 213.674 267.557,214.377 267.554,214.751 267.456 C 215.124 267.358,214.727 267.282,213.867 267.286 C 213.008 267.290,212.702 267.370,213.188 267.464 M189.551 267.858 C 190.142 267.947,191.108 267.947,191.699 267.858 C 192.290 267.768,191.807 267.695,190.625 267.695 C 189.443 267.695,188.960 267.768,189.551 267.858 M208.503 267.861 C 209.205 267.948,210.260 267.946,210.847 267.857 C 211.434 267.768,210.859 267.697,209.570 267.699 C 208.281 267.701,207.801 267.774,208.503 267.861 M196.601 268.260 C 198.492 268.332,201.480 268.331,203.242 268.259 C 205.004 268.187,203.457 268.128,199.805 268.129 C 196.152 268.129,194.711 268.188,196.601 268.260 " fill="#105694" stroke="none" fill-rule="evenodd"/>
                </g>
            </svg>