<?xml version="1.0" encoding="UTF-8"?>
<svg width="30" height="30" viewBox="0 0 30 30" fill="none" xmlns="http://www.w3.org/2000/svg">
  <circle cx="15" cy="15" r="14" fill="#059669" stroke="white" stroke-width="2"/>
  <path d="M15 7C16.1046 7 17 7.89543 17 9C17 10.1046 16.1046 11 15 11C13.8954 11 13 10.1046 13 9C13 7.89543 13.8954 7 15 7Z" fill="white"/>
  <path d="M19 14.5C19 14.5 17.5 13 15 13C12.5 13 11 14.5 11 14.5V16.5L13 19L12 23H14L15 19L16 23H18L17 19L19 16.5V14.5Z" fill="white"/>
</svg> 