<svg width="207" height="87" viewBox="0 0 207 87" fill="none" xmlns="http://www.w3.org/2000/svg">
<path d="M28.3052 63.221H35.5933V86.8719H41.183V63.221H48.4711L50.3673 57.9473H26.418L28.3052 63.221Z" fill="white"/>
<path d="M182.604 57.9473L184.501 63.221H191.789V86.8629H197.378V63.221H204.667L206.563 57.9473H182.604Z" fill="white"/>
<path d="M118.547 57.9473L111.16 77.6878L103.459 58.3598H101.077L93.6006 77.6609L86.0788 57.9473H80.1387L90.9855 86.8629H95.7484L102.3 69.7324L109.031 86.8629H113.785L124.425 57.9473H118.547Z" fill="white"/>
<path d="M20.513 71.8305C20.3782 71.7408 20.2344 71.6421 20.0906 71.5614L19.8929 71.4448C19.7851 71.382 19.6682 71.3103 19.5244 71.2475L19.2818 71.1219C19.183 71.0771 19.0841 71.0323 18.9223 70.9515L18.7965 70.8977C16.7656 70.0995 14.5998 69.7138 12.416 69.7676H10.1694C7.65313 69.7676 6.15237 68.5479 6.15237 66.503C6.15237 63.7406 8.67761 63.3011 10.1784 63.2831H19.4166L21.6453 57.9287H9.81891C6.6017 57.9287 3.9866 58.8077 2.26117 60.4759C0.733446 62.0185 -0.0753488 64.1262 0.00553065 66.2967C-0.0214292 67.6241 0.27513 68.9425 0.859259 70.1354C1.39846 71.3013 2.26117 72.2789 3.34855 72.9606C3.48335 73.0503 3.62713 73.1489 3.77991 73.2386L3.95964 73.3462C4.06748 73.409 4.19329 73.4808 4.32809 73.5525L4.57971 73.6781C4.66958 73.7229 4.77742 73.7678 4.93019 73.8395L5.056 73.8933C7.08698 74.6916 9.26173 75.0772 11.4455 75.0234H13.6742C16.1904 75.0234 17.6912 76.2432 17.6912 78.2881C17.6912 81.0505 15.1659 81.49 13.6652 81.5079H3.05199L0.823312 86.8623H14.0426C17.2598 86.8623 19.8749 85.9834 21.6093 84.3152C23.1371 82.7636 23.9459 80.6559 23.856 78.4854C23.8829 77.1401 23.5864 75.8037 22.9843 74.6019C22.4451 73.4539 21.5824 72.4942 20.513 71.8305Z" fill="white"/>
<path d="M179.495 67.2839C179.495 61.8756 175.334 57.9473 169.592 57.9473H155.689L157.586 63.2299H169.322C172.009 63.2299 173.815 64.8443 173.815 67.239C173.815 69.6337 172.009 71.2481 169.322 71.2481H158.206V86.863H163.795V76.5308H168.316L174.328 86.863H180.636L174.031 75.6339C177.383 74.2168 179.54 70.9163 179.495 67.2839Z" fill="white"/>
<path d="M72.21 63.2428L70.6373 57.9512H56.3037V63.2697H61.8934L72.21 63.2428Z" fill="white"/>
<path d="M75.6339 74.7328L74.0882 69.5488H56.3037V86.8767H78.9589L77.0718 81.5492H61.8934V74.7328H75.6339Z" fill="white"/>
<path d="M82.1779 37.5889C82.0072 37.6158 81.8454 37.4992 81.8274 37.3288C81.8185 37.2481 81.8364 37.1674 81.8814 37.1046L85.503 29.5528C85.6557 29.2748 85.9433 29.0864 86.2668 29.0685H113.577C113.874 29.0685 113.964 28.8801 113.784 28.647L104.132 16.3327C103.952 16.0995 104.042 15.9111 104.339 15.9111H113.999C114.332 15.9291 114.647 16.0815 114.862 16.3327L122.905 26.5393C123.085 26.7904 123.103 27.1312 122.941 27.4003L116.516 37.1405C116.318 37.4096 116.021 37.571 115.689 37.5889H82.1779Z" fill="#BC2126"/>
<path d="M125.871 0C126.167 0 126.275 0.206284 126.113 0.448444L121.099 8.06303C120.901 8.3321 120.604 8.49354 120.272 8.51147H94.1748C93.8513 8.52941 93.5637 8.70879 93.4199 8.99579L91.8742 12.3681C91.7574 12.6641 91.8023 13.0049 92 13.265L98.722 21.2563C98.9107 21.4805 98.8298 21.6599 98.5333 21.6599H89.7354C89.4029 21.6419 89.0794 21.5074 88.8367 21.2652L82.4203 14.2964C82.2136 14.0542 82.1597 13.7134 82.2765 13.4175L88.0549 0.49329C88.1987 0.206285 88.4863 0.0269069 88.8098 0.00896909L125.871 0Z" fill="#BC2126"/>
<path d="M123.412 86.9981H129.505L135.832 70.9438L132.731 63.6162L123.412 86.9981Z" fill="white"/>
<path d="M146.14 86.9899H152.215L140.146 57.7334H134.547L146.095 86.8733L146.14 86.9899Z" fill="white"/>
</svg>
